# xmcd
#
# Track frame offsets: 
#        150
#        13634
#        22547
#        36006
#        46065
#        59775
#        69435
#        77941
#        88875
#        101087
#        110622
#        123437
#        133110
#        144330
#
# Disc length: 2092 seconds
#
# Revision: 0
# Processed by: cddbd v1.5.2PL0 Copyright (c) Steve Scherf et al.
# Submitted via: ExactAudioCopy v1.3
#
DISCID=bb082a0e
DTITLE=Ian Gillan and The Javelins  - Raving With Ian Gillan and The Javel
DTITLE=ins 
DYEAR=2019
DGENRE=Rock and Roll
TTITLE0=Gillan,Ian - Too Much Monkey Business
TTITLE1=Gillan,Ian - It'll Be Me
TTITLE2=Gillan,Ian - You Really Got A Hold On Me
TTITLE3=Gillan,Ian - It's Only Make Believe
TTITLE4=Gillan,Ian - Can I Get A Witness
TTITLE5=Gillan,Ian - Poison Ivy
TTITLE6=Gillan,Ian - Rave On
TTITLE7=Gillan,Ian - Blue Monday
TTITLE8=Gillan,Ian - You Better Move On
TTITLE9=Gillan,Ian - Somethin' Else
TTITLE10=Gillan,Ian - Money
TTITLE11=Gillan,Ian - Love Potion No. 9
TTITLE12=Gillan,Ian - Let's Dance
TTITLE13=Gillan,Ian - Roll Over Beethoven
EXTD=
EXTT0=
EXTT1=
EXTT2=
EXTT3=
EXTT4=
EXTT5=
EXTT6=
EXTT7=
EXTT8=
EXTT9=
EXTT10=
EXTT11=
EXTT12=
EXTT13=
PLAYORDER=
